HIERARCHY
ROOT Hips
{
    OFFSET 0.0 0.0 0.0
    CHANNELS 6 Xposition Yposition Zposition Zrotation Xrotation Yrotation
    JOINT LeftHipJoint
    {
        OFFSET 0.1 0.0 0.0
        CHANNELS 3 Zrotation Xrotation Yrotation
        JOINT LeftUpLeg
        {
            OFFSET 121.91907642478228 0.0 0.0
            CHANNELS 3 Zrotation Xrotation Yrotation
            JOINT LeftLeg
            {
                OFFSET 0.0 0.0 -416.92188843967415
                CHANNELS 3 Zrotation Xrotation Yrotation
                JOINT LeftFoot
                {
                    OFFSET 0.0 0.0 -403.05100867884977
                    CHANNELS 3 Zrotation Xrotation Yrotation
                    End Site
                    {
                        OFFSET 0.0 -0.1 0.0
                    }
                }
            }
        }
    }
    JOINT LowerBack
    {
        OFFSET 0.0 0.0 0.1
        CHANNELS 3 Zrotation Xrotation Yrotation
        JOINT Spine
        {
            OFFSET 0.0 0.0 220.0097854509599
            CHANNELS 3 Zrotation Xrotation Yrotation
            JOINT Spine1
            {
                OFFSET 0.0 0.0 254.84849937380687
                CHANNELS 3 Zrotation Xrotation Yrotation
                JOINT LeftShoulder
                {
                    OFFSET 0.1 0.0 0.0
                    CHANNELS 3 Zrotation Xrotation Yrotation
                    JOINT LeftArm
                    {
                        OFFSET 139.14631088799334 0.0 0.0
                        CHANNELS 3 Zrotation Xrotation Yrotation
                        JOINT LeftForeArm
                        {
                            OFFSET 260.5951009258848 0.0 0.0
                            CHANNELS 3 Zrotation Xrotation Yrotation
                            JOINT LeftHand
                            {
                                OFFSET 237.064888707355 0.0 0.0
                                CHANNELS 3 Zrotation Xrotation Yrotation
                                End Site
                                {
                                    OFFSET 0.1 0.0 0.0
                                }
                            }
                        }
                    }
                }
                JOINT Neck
                {
                    OFFSET 0.0 0.0 0.1
                    CHANNELS 3 Zrotation Xrotation Yrotation
                    JOINT Neck1
                    {
                        OFFSET 0.0 0.0 109.29578895839761
                        CHANNELS 3 Zrotation Xrotation Yrotation
                        End Site
                        {
                            OFFSET 0.0 0.0 113.80092902476486
                        }
                    }
                }
                JOINT RightShoulder
                {
                    OFFSET -0.1 0.0 0.0
                    CHANNELS 3 Zrotation Xrotation Yrotation
                    JOINT RightArm
                    {
                        OFFSET -139.14631088799334 0.0 0.0
                        CHANNELS 3 Zrotation Xrotation Yrotation
                        JOINT RightForeArm
                        {
                            OFFSET -260.5951009258848 0.0 0.0
                            CHANNELS 3 Zrotation Xrotation Yrotation
                            JOINT RightHand
                            {
                                OFFSET -237.064888707355 0.0 0.0
                                CHANNELS 3 Zrotation Xrotation Yrotation
                                End Site
                                {
                                    OFFSET -0.1 0.0 0.0
                                }
                            }
                        }
                    }
                }
            }
        }
    }
    JOINT RightHipJoint
    {
        OFFSET -0.1 0.0 0.0
        CHANNELS 3 Zrotation Xrotation Yrotation
        JOINT RightUpLeg
        {
            OFFSET -121.91907642478228 0.0 0.0
            CHANNELS 3 Zrotation Xrotation Yrotation
            JOINT RightLeg
            {
                OFFSET 0.0 0.0 -416.92188843967415
                CHANNELS 3 Zrotation Xrotation Yrotation
                JOINT RightFoot
                {
                    OFFSET 0.0 0.0 -403.05100867884977
                    CHANNELS 3 Zrotation Xrotation Yrotation
                    End Site
                    {
                        OFFSET 0.0 -0.1 0.0
                    }
                }
            }
        }
    }
}
MOTION
Frames: 4
Frame Time: 0.03333333333333333
0.0 0.0 819.3025018270228 22.474221268928687 -7.464356682593446 9.227235628715706 0.0 0.0 0.0 0.864277308305168 5.857860180389437 -7.129913589327015 0.33848390911305104 15.20379719114502 1.1969593476340201 0.0 0.0 0.0 0.0 0.0 0.0 -0.9746608530279585 -6.623157382541121 -11.25351697730637 -6.10717552661662 6.735799880937015e-16 4.340672076629035e-16 0.0 0.0 3.975693351829396e-16 -67.19324424190795 -54.87013448748738 -32.590384054596754 -96.5598073350976 -2.116634316151334e-15 -2.3739813085763898e-15 0.0 0.0 0.0 0.0 0.0 3.975693351829396e-16 6.0280733709209535 1.7714950490166548 -7.368961759518524 0.0 0.0 3.975693351829396e-16 -2.493724597755909 21.35686774681299 -71.49523606853215 16.42759335807854 2.107726018565241e-16 -9.67098286973806e-15 0.0 0.0 2.3854160110976376e-15 0.0 0.0 0.0 0.0028850628431370258 0.04302112702976615 -6.851331787089409 0.6285165951167754 22.91869650729652 1.1535097014477045 0.0 0.0 0.0
0.0 0.0 819.3025018270228 22.609246565597783 -7.314550075079234 9.204989619224161 0.0 0.0 1.987846675914698e-16 0.848754874929287 5.767743733074057 -7.184715786280926 0.3137985159725733 15.039019650645814 1.3591222357952588 0.0 0.0 3.975693351829396e-16 0.0 0.0 1.987846675914698e-16 -0.9664012335754526 -6.584427749260033 -11.11969272833657 -6.006807224768244 2.262052893845513e-15 5.168000918226097e-16 0.0 9.939233379573489e-17 0.0 -66.24525898451397 -53.841783259140385 -32.05632244974035 -96.8006911475798 -7.402062536240191e-15 1.0824982568107941e-14 3.1805546814635168e-15 0.0 0.0 0.0 9.939233379573489e-17 0.0 5.815277236611774 1.868659639062882 -7.319120260678676 0.0 9.939233379573489e-17 0.0 -1.8018932587201533 21.357518765136003 -71.91850793759552 16.300216087566582 -1.0568611670641267e-14 4.726573223675213e-15 0.0 0.0 1.1927080055488188e-15 0.0 0.0 1.987846675914698e-16 -0.005489986557264428 -0.014112346106340375 -6.795337803515505 0.6367416179390503 22.711957913081267 1.0944511301845936 5.517382872562698e-33 -1.5902773407317584e-15 3.975693351829396e-16
0.0 0.0 819.3025018270228 22.522646169994555 -7.140792743200413 9.311451221817146 0.0 0.0 -1.987846675914698e-16 0.8181651444653388 5.5260908716575425 -7.282280189652783 0.30143030146292377 15.101197002368078 1.4776886480441591 0.0 0.0 3.975693351829396e-16 0.0 0.0 -1.987846675914698e-16 -0.9759394855193714 -6.608883363279889 -11.361571715079773 -5.879737126806181 1.2877089142922357e-15 2.056597194007746e-15 3.4483642953516864e-34 9.939233379573489e-17 -3.9756933518293955e-16 -65.14702986221444 -52.94271071540356 -31.301893499193106 -96.96644837079914 6.8711515879555646e-15 -1.8349158738844665e-15 0.0 0.0 0.0 3.4483642953516864e-34 9.939233379573489e-17 -3.9756933518293955e-16 5.938435306869818 1.9660120824112701 -7.10746453503198 3.4483642953516864e-34 9.939233379573489e-17 -3.9756933518293955e-16 -1.1504898170704594 21.505662999848802 -72.03611796999768 16.29594395194746 -5.395335460518606e-15 7.198456773691595e-15 0.0 0.0 9.93923337957349e-16 0.0 0.0 -1.987846675914698e-16 -0.05801110918765483 -0.3703679713234111 -6.82197379875926 0.6448827493299041 22.657840662918712 0.9740926466636043 6.896728590703373e-34 -1.9878466759146977e-16 3.9756933518293955e-16
0.0 0.0 819.3025018270228 22.63609638270666 -6.996534527978097 9.285780719641187 0.0 0.0 3.975693351829396e-16 0.8007772446194474 5.456395594253868 -7.350989608666394 0.25834283170538974 14.839960858522392 1.6934984320180937 0.0 0.0 0.0 0.0 0.0 3.975693351829396e-16 -0.973020386552411 -6.6467709010630145 -11.17870643741813 -5.828965492286831 2.481594336789477e-15 1.263410403081156e-16 0.0 0.0 -3.975693351829396e-16 -64.26511688956457 -51.82759609573919 -30.719981550778837 -97.75386315570992 5.8377065145324585e-15 -2.985611662247476e-15 -3.1805546814635168e-15 0.0 0.0 0.0 0.0 -3.975693351829396e-16 5.703755278816987 2.0889404350364766 -7.080927855649878 0.0 0.0 -3.975693351829396e-16 0.0444389584201198 21.633733746655544 -72.49705028000004 15.957126067187948 8.867723578840689e-15 5.983303013754474e-15 3.1805546814635176e-15 1.5902773407317588e-15 -2.782985346280578e-15 0.0 0.0 3.975693351829396e-16 -0.0866250677831203 -0.5701028926495617 -6.763092538972183 0.6297410608929978 22.345659378896737 0.8750396210311243 0.0 0.0 -3.975693351829396e-16
